<svg xmlns="http://www.w3.org/2000/svg" width="24" height="24" fill="#e7305e" stroke="#e7305e" stroke-width="0.5" viewBox="0 0 24 24">
    <g>
        <path d="M16.6,11.8H7.5c-0.6,0-1.1,0.5-1.1,1.1v5.2c0,0.6,0.5,1.1,1.1,1.1h9.1c0.6,0,1.1-0.5,1.1-1.1v-5.2
		C17.6,12.3,17.2,11.8,16.6,11.8z M17.2,12.8v5.2c0,0.1,0,0.2-0.1,0.3L13,15.6l4.1-3.1C17.1,12.7,17.2,12.7,17.2,12.8z M16.6,12.3
		C16.6,12.3,16.6,12.3,16.6,12.3l-4.2,3.2c-0.2,0.1-0.5,0.1-0.7,0l-4.2-3.2c0,0,0,0,0.1,0H16.6z M7,18.4c-0.1-0.1-0.1-0.2-0.1-0.3
		v-5.2c0-0.1,0-0.2,0.1-0.3l4.1,3.1L7,18.4z M7.5,18.6l4-2.7c0.2,0.1,0.3,0.1,0.5,0.1c0.2,0,0.4,0,0.5-0.1l4.1,2.7c0,0,0,0,0,0H7.5z
		" class="st0"/>
        <path d="M4.3,15.6H1.3c-0.1,0-0.2,0.1-0.2,0.2c0,0.1,0.1,0.2,0.2,0.2h2.9c0.1,0,0.2-0.1,0.2-0.2
		C4.5,15.7,4.4,15.6,4.3,15.6z" class="st0"/>
        <path d="M22.8,15.6h-2.9c-0.1,0-0.2,0.1-0.2,0.2c0,0.1,0.1,0.2,0.2,0.2h2.9c0.1,0,0.2-0.1,0.2-0.2
		C23,15.7,22.9,15.6,22.8,15.6z" class="st0"/>
        <path d="M5.4,11.7l-2.5-1.5c-0.1-0.1-0.3,0-0.3,0.1c-0.1,0.1,0,0.3,0.1,0.3l2.5,1.5c0.1,0.1,0.3,0,0.3-0.1
		C5.6,11.9,5.5,11.8,5.4,11.7z" class="st0"/>
        <path d="M8.3,9.3c0.1-0.1,0.2-0.2,0.1-0.3L6.9,6.4C6.8,6.3,6.7,6.3,6.6,6.3C6.5,6.4,6.4,6.6,6.5,6.7l1.5,2.5
		C8,9.3,8.2,9.3,8.3,9.3z" class="st0"/>
        <path d="M12.1,8.3c0.1,0,0.2-0.1,0.2-0.2V5.1c0-0.1-0.1-0.2-0.2-0.2S11.8,5,11.8,5.1V8C11.8,8.2,11.9,8.3,12.1,8.3z" class="st0"/>
        <path d="M15.8,9.3c0.1,0.1,0.3,0,0.3-0.1l1.5-2.5c0.1-0.1,0-0.3-0.1-0.3s-0.3,0-0.3,0.1l-1.5,2.5
		C15.7,9.1,15.7,9.2,15.8,9.3z" class="st0"/>
        <path d="M21.5,10.3c-0.1-0.1-0.2-0.2-0.3-0.1l-2.5,1.5c-0.1,0.1-0.2,0.2-0.1,0.3c0.1,0.1,0.2,0.2,0.3,0.1l2.5-1.5
		C21.6,10.6,21.6,10.5,21.5,10.3z" class="st0"/>
    </g>
</svg>
