<svg xmlns="http://www.w3.org/2000/svg" viewBox="0 0 675.8 1080">
	<path d="M188.2 698.6c15.2 3.3 21.5 17.7 28.8 29.7 13.2 18.4 40.4 17.5 58.4 6.9 16.7-10.1 37.1-14.4 55.8-7.3 7.7-2.2 15.6-4.2 23.7-3.5 21.9.8 38.7 20 61.1 18.4 15.2.1 28.6-10 34.6-23.6 4.4-10.3 13-17.7 23.9-20.4-2.6 22.1.4 44.2 9.8 64.6-2.6-2.6-7.9-7.8-10.4-10.4 13.8 32.1 23.2 68 15.3 102.8-4-8.7-9.7-16.9-20.1-17.9 14.5 43.6 7.1 98.5-31.9 127.1-10 8-22.8 16-24.5 29.8 1.4 5.5 5.1 10 7.9 14.9-17.3 1.7-33.3-12.1-33-29.8-3.7 10.2-5.6 20.9-9.4 31.1-9.7 19.5-27.7 33.4-47.5 41.9-19-9-37.3-22-46.6-41.4-4-10.3-5.9-21.3-9.2-31.8-.3 17.8-15.5 31.6-33.1 30.2 3.4-6.6 10.2-13.9 5.9-21.8-9.1-17.4-29.5-24.2-40.4-40.2-23.9-31.2-25.5-73.6-14.4-110.1-9.9 1.6-15.8 9.1-20.1 17.4-7.3-34.2 1.6-69.1 14.6-100.7l-10.1 8.6c4.4-10.4 8.9-21.1 10.7-32.4 1.4-10.8-1.7-21.5.2-32.1M309.6 769c-14.4 7.7-31.4 6.7-47 3.8 6.3 11.9 16.1 23.7 30.7 24.2 11.2 3.4 16.2-8.4 23-14.4 6.6-6.8 17.6-6.7 25.8-3.1 9.2 5.7 13.7 21.4 27 17.4 14.3-.7 24.1-12.6 30.2-24.4-15.2 3.3-31.9 4.2-46.1-3.2-13.3-7.5-30.3-8.1-43.6-.3z"/>
	<path d="M208 444.1c48.3-31.5 104.5-52.1 162.1-57.2-13.2 6.7-27.4 11.3-40.8 17.6 27.1-4.7 53.9-13 81.8-9 8.5 1.1 26.8-2 23.6 11.9-7.8-.6-23.4-1.7-31.2-2.4 58.9 11.1 120.5 47.4 136.6 108.8-6.8-5.9-13-12.5-19.2-19.1 16.2 41 21.2 88 7.2 130.4-2.2-21-1.3-42.1-3.4-63.1-2.5 14-2.4 29-9.4 41.9-2.3-1.4-7-4.2-9.4-5.6.6 30.4-4 60.9-13.7 89.7-1.4 9.1-11.1 8.4-17.9 10.3-3.9 6.8-7.8 13.7-11.7 20.5-10.3-43.4.3-88.7-6-132.4-7.9-24.2-34.6-34.4-55.4-44.9-15.5-8.7-32.7-.5-48.9.6-26.9 3.6-53.6-1.6-80.1-4.8-25.3 7.6-53.3 20-67.7 43.2-11 45.1 2.2 92.7-7.3 138.3-7.4-14.7-17.5-27.6-27.3-40.5-11.3-48.6-29.5-99.8-13.6-149.6-3.3 3.5-9.8 10.6-13.1 14.2 5-18.1 16.8-33.1 31.2-44.7 1.4-36.2 25.1-67.3 56-84.2-7 10.3-14.7 20.2-22.4 30.1z"/>
	<path d="M426.8 407.1c-4.4-3.8.1-12.2 5.7-9.3 3.7 3.8 14.2 6.2 12.8 12.4-6.4.4-12.6-.6-18.5-3.1z"/>
	<path d="M357.2 79.9c32.7-17.9 69.6-29.9 107.2-29 28.1.5 56.2 9.7 78.5 27.1 22.6 17.5 39.8 42.8 44.8 71.2-1.4-1.5-2.9-2.9-4.1-4.6-8.1-11.7-17.3-23-29.2-31-15.3-10-34.1-13.4-52.1-11.8-23.1 2.1-44.7 12.9-62.2 27.9-12.3 10-19.7 24.9-23.3 40.2-5.7 24.7-3.5 50.5 1.6 75.1 4.8 21.7 11.8 43.3 23.9 62.1 13 20.7 27.2 40.5 40.3 61.1 12.5 19.6 24.7 39.5 33.4 61.1 28.3 3.2 56.6 7.3 84.1 15 9.5 2.8 19 6 27.5 11.2 3.9 2.4 7.3 5.7 9 10v5.1c-1.4 3.6-3.7 6.8-6.7 9.1-7.6 6.1-16.9 9.7-26 12.9-20.8 7-42.4 11.1-64.1 14.4-59.6 8.9-120 10.3-180.2 9.1-20.1-.7-40.2-.3-60.3.2-34.1.4-68.3.2-102.3-2.2-36.4-2.6-72.9-6.6-108.5-15-13.7-3.4-27.5-7.3-40.1-13.9-6.2-3.4-12.7-7.6-15.3-14.6v-5.2c2.3-6 8-9.8 13.5-12.6 10.3-5.2 21.4-8.4 32.5-11.2 24.4-6 49.2-9.5 74.1-12.4 2.1 0 2.2-2.6 2.8-4.1 5.5-20.6 14.8-39.8 24.8-58.5 9.3-22.1 19.7-43.9 32.7-64.1 7.9-12.2 16.7-24 28-33.3 7.8-6.4 13.3-15.4 16-25 3.7-13.3 3.8-27.1 5.4-40.7 1.5-14.2 4.6-28.3 10.5-41.4 7-16.2 18.1-30.3 30.5-42.7 15.8-15.5 33.9-28.7 53.3-39.5zm-91 501.5c23-1.8 46-3.4 69.1-3.4 22.4 1 44.7 1.9 67 4.3 10.5 1.2 21.3 2.1 30.9 6.9 10.8 5.4 18.3 16.4 20.1 28.3 2.7.2 5.9-1 8.1 1 1.2 3.2.2 6.6-.8 9.6h-6.5c-.9 11.7-4.4 23.7-13.1 32-7.6 7.8-18.6 11.8-29.4 10.9-17.7-1.5-34.4-9.2-48.4-19.8-6.5-5-12.8-10.8-16.2-18.4-4.6-10.1-6.1-21.2-6.8-32.2-7-2-14.3-1.8-21.3 0-1.2 15.8-3.6 33.7-16.2 44.8-14.8 13.6-33.9 23.3-54 25.4-13 1.6-26.4-4.4-34.1-14.9-6.5-7.8-8.6-18-9.6-27.9h-6.5c-1-3.1-2.1-6.5-.8-9.6 2.2-2.1 5.5-.8 8.1-1 2-12.7 10.4-24.3 22.2-29.3 12.1-5 25.4-5.2 38.2-6.7m27.5 1.3c9.5 2.3 19.1 6.4 25.1 14.5 7.1-1.2 14.4-1.3 21.5 0 6.1-8.1 15.7-12.3 25.3-14.4-11.8-.5-23.5-.8-35.3-1.4-12.2.3-24.4.9-36.6 1.3m-33.6 1.6c-11.1 1.4-22.5 3-32.7 7.8-6.2 2.9-11.5 7.8-14.3 14.1-4.5 10.2-6.2 21.9-3.9 32.9 3 14.3 15.2 26.6 30 28.2 16 2.5 31.8-3.4 45-12 9.9-6.4 21-12.8 26.4-23.8 3.7-10.7 6-22.1 5.4-33.4-2.3-4.9-7.3-7.8-12.2-9.8-13.8-5.3-29-5.4-43.7-4m82.7 13.6c0 11.8 1.7 23.7 6.1 34.7 5.8 10.3 16.3 16.6 25.9 22.7 13.1 8.5 28.8 14.5 44.6 12.1 13.3-1.3 24.8-11.3 29.1-23.7 4.4-12.5 2.4-26.6-3.1-38.5-4.7-10-15.5-14.8-25.7-17.3-16-3.9-32.7-5.5-49.1-3.5-10.1 1.7-21.7 4.2-27.8 13.5z"/>
	<path d="M405.5 666.4c-10-1.6-19-5.1-29.7-11.8-13.1-8.1-20.6-14.3-24.4-20.1-2-3-3.6-7.5-5.1-14.3-1.2-5.5-2.4-15.2-2.4-19.6 0-2.8 0-2.8 2.5-5.3 4.6-4.6 10.9-7.3 21.7-9.4 4.8-.9 6.8-1 17.2-1 8.9 0 13.1.2 17.2.8 29.4 4.3 39.5 10.5 44.8 27.4 1.9 6 2.7 11.8 2.4 17.7-.3 6.5-1.5 11.2-4.3 16.8-1.8 3.5-2.9 5-6.2 8.4-5.9 6-11.7 9.1-19.1 10.1-3.1.6-12.2.7-14.6.3zm-166.9-.2c-13.1-1.9-24.6-12.7-28-26.3-2.6-10.4-1.2-23.3 3.9-34 1.2-2.6 2.4-4.2 5.1-6.8 6.6-6.6 15.6-10 33.9-12.9 6.9-1.1 8.8-1.2 20.1-1.3 10.2 0 13.2.1 16.7.8 11.9 2.3 19.6 5.7 23.3 10.4 1.6 2 1.8 2.5 1.8 5 0 7-2 18.5-4.7 27.1-2.6 8.4-9 14.7-25.2 25.1-10.8 6.9-20.6 11.1-29.7 12.7-4.3.7-12.9.8-17.2.2z"/>
	<path d="M326.09664 766.732932c16.954382-.959682 34.228658.319894 50.543252 3.838728 24.311944 8.317244 43.18569 26.231308 63.019118 41.906114 2.559152 2.559152 6.077986 3.518834 9.59682 4.79841 5.758092-2.559152 8.637138-8.637138 9.59682-14.715124.639788-5.438198 4.79841-10.876396 10.556502-10.876396 11.19629-.319894 22.39258 0 33.58887 0 4.158622.319894 9.59682-.959682 12.155972 3.19894 7.677456 12.475866 9.916714 27.830778 7.677456 41.906114-1.59947 11.836078-7.99735 23.032368-18.873746 29.110354-15.354912 8.317244-34.868446 9.59682-50.863146 1.919364-9.276926-4.158622-17.274276-10.876396-24.631838-18.233958-15.354912-15.674806-27.830778-33.908764-42.545902-49.903464-12.155972-12.79576-28.150672-23.672156-46.064736-25.911414-4.79841-.959682-9.59682 1.279576-14.39523.959682-1.919364-2.559152-.319894-5.438198.639788-7.99735z"/>
	<path d="M532.136929 647.330341c2.10897-3.796146 5.694219-7.592292 10.54485-6.748704 1.687176 3.796146 6.116013 4.639734 9.068571 7.381395 2.741661 2.319867 6.748704 2.741661 9.279468 5.694219 2.319867 2.952558 6.537807 3.374352 9.068571 5.905116 3.374352 3.163455 7.170498 5.905116 11.177541 8.43588 1.687176 1.054485 3.796146.210897 5.483322 1.054485 4.21794 3.585249 9.490365 6.32691 15.184584 6.32691-6.748704 4.639734-14.973687 8.014086-19.824318 14.76279-1.476279 2.10897-3.163455 5.061528-1.476279 7.592292 1.476279 3.163455 4.850631 5.061528 7.803189 6.537807 7.803189 3.585249 16.449966 5.061528 23.831361 9.912159 3.796146 2.319867 7.170498 6.32691 6.959601 10.966644-.421794 6.537807-4.639734 13.075614-11.177541 14.551893-8.646777 0-16.239069-7.381395-24.885846-5.061528-2.530764 1.054485-6.537807 3.585249-4.850631 6.959601 2.530764 4.428837 7.381395 6.748704 10.333953 10.54485 1.054485 2.530764-1.476279 4.428837-3.374352 5.905116-5.483322 3.585249-11.599335 7.381395-18.558936 7.381395-7.170498-.421794-13.708305-4.428837-21.0897-4.21794-4.428837-.210897-9.490365 1.687176-11.388438 5.905116-2.10897 4.639734-3.163455 10.54485-7.803189 13.497408-7.592292 3.163455-16.239069-1.687176-23.831361 2.10897-3.374352 1.054485-4.007043 4.639734-5.694219 7.170498-1.265382 1.054485-3.374352.210897-4.850631.421794 1.265382-4.007043 5.061528-6.748704 8.014086-9.490365 2.741661-2.741661 6.32691-4.639734 10.333953-5.061528 4.850631-.843588 11.388438-.632691 14.340996-5.483322 4.007043-6.748704 1.687176-14.76279 2.741661-22.144185.421794-2.952558.843588-6.537807 3.374352-8.646777 2.530764-1.687176 5.483322-.210897 7.803189 1.054485 3.585249 1.687176 7.381395 3.585249 11.388438 4.21794 1.687176.210897 3.796146-.843588 3.374352-2.741661-.632691-4.007043-4.21794-6.32691-5.061528-10.333953 5.483322-1.265382 11.177541.421794 16.660863-.632691 4.428837-.843588 6.116013-6.748704 3.796146-10.333953-1.898073-2.952558-5.483322-4.428837-8.646777-5.694219-5.694219-2.319867-11.810232-2.741661-17.504451-5.061528-2.319867-1.054485-5.272425-2.741661-5.272425-5.694219 0-3.163455 3.585249-4.428837 6.116013-5.694219 4.639734-2.319867 10.755747-2.319867 14.130099-6.959601 2.10897-4.428837-1.687176-9.490365-5.694219-11.177541-3.374352-1.476279-8.014086-1.476279-10.123056-4.850631-1.476279-3.374352 1.476279-6.959601.421794-10.333953-2.741661-4.007043-8.014086-5.272425-10.966644-9.068571-1.687176-2.952558-.632691-6.32691.843588-8.857674z"/>
	<path d="M305.62768 183.87566l5.1 12.5c-.5.8-.9 1.7-1.4 2.9l.2.2h.1l1.2-1.4.3.1h.1v.2c-1.1 3.1-1.6 5.4-1.6 6.8l.1.1-.8 4.9.5 4.2c0 .4.3 1.8.8 4.1l2.1 2.7c.4 1.3.7 2 .9 2.1h.2l.1-.1-.1-.1.7-1.2h.1c0 .3.2.5.5.6h.1c.2 0 .3-.2.4-.7h.1l.3.2.5 1.6h-.1c.1.5.2 1 .4 1.4l-.1.1v.3l.1.1h-.1l.1.9v.5l.2.2h.1v-.2l-.1-.1c.1 0 .3-.5.7-1.5.2 0 .5 1.1.8 3.2h.1c.2 0 .3-.2.3-.5v-.4l-.1-.1h.1c.1-.8.2-1.3.3-1.3.6-3.2 1-4.8 1.2-4.8h.2l.4.3v.1l-.1.1c.5.6.8 1 .9 1.3l.1.2c0 .2.1.3.1.3l1 2.4-33.2 79.8h-.4l-.1.3c.1.2.1.3.2.4l-10.3 24.8h8.6l.2 1.6-.2 1.5-.1.6-.1.6.1.1c-.1 0-.3.9-.6 2.8v.1c.2.2.3.4.3.6v.2l-.2.9.1.1c0 1 .1 1.6.3 1.6l.2-.2.1-.5h.6v.2c.1 1.1.2 1.7.3 1.7h.2l.1-.8c.2-1.1.6-2 1.1-2.7 0 .3.2.9.6 1.7.5 1.1.8 1.7.9 1.7.1 1.1.3 2 .6 2.8h.1l.1-.1v-1.5h.1l.1-.1v-.4l.1-.4-.1-.1v-.1l.1-.1h.1c0 .5 0 .8.2.8h.2l.1-.4v-.6l.1-.1-.1-.2h.1v-3.8h.2l.4.1c.2 0 .4.8.5 2.2h.2l.1-.1.5-2.6v-.7l.3-2.4-.1-.1c.3-.5.5-1.3.7-2.4v-.5l.3-.9v-.1l-.1-.1h2.2c0 .3.1.4.2.5h.1l-.2 1.2v.1l.1.1-.2.2.2.5-.3 1.6.3 2.3h-.1l.1.5-.1.4c.1.4.2.6.4.6h.2v-.2l-.1-.4c.1-.3.2-.6.2-1.1h.1c.3 0 .6.8.7 2.3h-.1l.1.3v.1l-.1.1.1.3-.1.4v.5l.1.1-.1.1v.4l.1.1h-.1c.1.8.2 1.3.4 1.6h-.1c.2.8.3 1.2.4 1.2h.1c.2-1.3.4-1.9.6-1.9l.2.2v.6l-.1.4.1.1-.1.4.3.4.2-.2c0-.3.2-1.3.4-2.8.2-.4.3-.8.5-1.1h.2c0 .4 0 .9.2 1.7.1 0 .2-.2.3-.8l-.1-.1h.1v-.6l.2-.8-.1-.1.1-.1v-.4c.1-1 .2-1.7.4-2.3l.6 1.4v.3l.2.7h.1c.2 0 .3-.3.4-.9l-.1-.1.7-1.8.9-1.1c.1 0 .2.3.4.8h-.1l.5 2.1v.4l-.1.5c.1.6.1 1 .3 1 .1 0 .2-.3.3-1l-.1-.1c.2-1.7.6-3.2 1.1-4.7v-.1c.6 0 1 .2 1 .5.1 0 .2-.1.2-.3h.1l.3.2h.3c.1-.4.2-.6.3-.6 0-.5.4-1.6 1.2-3.3h.9c.1.3.2.6.3 1h.2l.1-1h.7l11-27.9c.4 0 .6.3.7.9.5.9.7 1.5.7 1.8v.1l-.1.1c0 .5.1.7.3.7h.2c.2-1.3.5-1.9 1-1.9 0 .2.1.4.3.4h.3c.4-1.5.8-2.6 1.2-3.2h.1l.8 3.8v.8l.1.1-.1.1v1.2l.1.1h-.1l.2.2h.1c.1 0 .3-.6.4-1.8h.3l-.1.3.7 3.2-.1.1.2.2h.2l.3-.3v-.2l-.1-.1h.1l-.1-.4v-.1l.1-.4-.1-.4v-.1c0-1.4.1-2.2.4-2.5v-1.8l.2-.9-.1-3.3.1-.4-.2-.8v-.1l.1-.1v-.1l-.1-.1.4-1.1h.2c.1.7.2 1.2.4 1.5v.1l-.1.1c.1.4.2.6.3.6.1 0 .2-.4.4-1.1l-.4-2.7.1-.1v-1.5l.1-1.3-.1-1.1v-.5l-.1-.1.1-.1v-1.1l.2-1.2-.1-.4.1-.7c-.1-.6-.5-1-1.2-1h-.1l-.1.1h-.1l-.1-.1-.8.2h-.2l1-2.6.1.3h-.1c.1.7.3 1.1.4 1.1l-.1.1v.1l.1.1h.1l.1-.1.8-3.9v-.1l-.1-.1.4-1.1v-.2l7.1-18.1 13.8 40.6h-.3v-.1l-3 .3-.3-.2-.6-.8h-.1v.1h-.3.2l.1-.1v-.1h-.3v.2c-1.7.2-2.5.3-2.5.5v.3c.4.4.7.8.9 1.2.9 2.5 1.5 5.3 2 8.4l-.1.3.4 1.5h-.1l.2 1.4v.3l.2.2v.1l-.1.1v.2h.4l.3-1.2h.1c.1 0 .5.7 1.2 2 .4 0 .7.7.9 2.1l-.1.1c.2.3.4.6.4 1h-.1c.1.6.2.9.4.9.1 0 .2-.3.4-.9l.4.1c.1.5.2.8.4.9.2 1.3.4 1.9.5 1.9h.2v-.7c0-1.2.2-2.2.7-3h.1c.5 1.2.7 2 .7 2.2l-.1.5.4 1.4h-.1c.1.4.1.5.3.5.2-.1.5-.7.8-1.6l.3.3h-.1l-.1.1.3.3-.1.4.1.5v.7l.2.2h.1l.2-.2v-1.5c.4-1 .7-1.8 1-2.5l3.5 10.2h.6c.1.6.3 1.7.7 3.6l2.1 2.7c.4 1.3.7 2 .9 2.1h.2l.1-.1-.1-.1.7-1.2h.1c0 .3.2.5.5.6h.1c.2 0 .3-.2.4-.7h.1l.3.2.5 1.6h-1.1c.1.5.2 1 .4 1.4l-.1.1v.3l.1.1h-.1l.1.9v.5l.2.2h.1v-.2l-.1-.1c.1 0 .3-.5.7-1.5.2 0 .5 1.1.8 3.2h.1c.2 0 .3-.2.3-.5v-.4l-.1-.1h.1c.1-.8.2-1.3.3-1.3.6-3.2 1-4.8 1.2-4.8h.2l.4.3v.1l-.1.1c.2.2.4.4.5.6l-.2.8c.4 1.3.6 2.2.6 2.5l-.1.4h.1l.1.1-.1.1c0 .9.1 1.3.4 1.3h.1v-.8l-.1-.1.1-.1v-.4l-.1-.1h.1l.1-.1-.1-.1c.7-1.8 1.2-3 1.5-3.6.2-.5.5-1 .8-1.6v.2l.2.3h.1c.1-.4.2-1 .4-1.6 0-.1.1-.1.1-.2.1-.5.2-.8.4-.8.2.2.4 1 .5 2.4h-.1l.2 1.2-.1.1.1.3-.1.8.1.3h.1l.9-2.5h.1l.1.5-.2.9.1.1v.1l-.1.1.1.4v1.1l.2.3c.1 0 .2-.6.4-1.7l-.1-.1c.1-.2.3-.6.4-1.3.7-2.3 1.2-3.5 1.4-3.5h.1l.9 2.5c.1 0 .3-.3.5-.9v-.1l-.1-.1c.1 0 .3-.3.5-.8 1-.9 1.9-1.5 2.9-1.7.2 0 .5.1.9.4h.3l.1-.1.1-.4c0-.3.3-1 .6-2h8.9l-57.8-148.1h-37.9zm12.2 29.8l.6 1.4-.1.1c-.3-.1-.4-.3-.4-.8v-.1c-.1-.2-.1-.4-.1-.6zm-3.1 8h.2v.1l-.2-.1zm4.6.1h.2l-.1.3h-.1v-.3zm-3 0h.1v.2h-.1v-.2zm2.9.4h.2v.1l-.2-.1zm-2.4 2.4h.1v.2h-.1v-.2zm1.5.1l.1.2h-.1v-.2zm14.8 59.5h.2v.2h-.2v-.2zm-2.1 21.2h.2v.1l-.2-.1zm.1.3l.2.2-.2.2v-.4zm26.3 3.3l.4 1.2c-.1-.2-.2-.4-.4-.7v-.5zm-1.5 6.7l.1.2h-.1v-.2zm1.1 3.4h.2c-.1.4-.1.6-.3.6v-.2l.1-.4zm-51.3 12.1h1.7c-.2.6-.6.9-1.1.9v-.3c-.1-.3-.3-.5-.6-.6zm68.2 0h.9c-.2.1-.3.3-.5.4-.2 0-.3-.2-.4-.4zm17.3 1.5l.2.2-.2.2h-.3l.3-.4zm-5.8.1h.2v.1l-.2-.1zm1 2.1l.3.2v.5h-.1l-.2-.7zm-95.7 1.4v.2h-.1l-.1-.1.2-.1zm16.3.3h.2v.1l-.2-.1zm-3 .4h.2l.1.3h-.3v-.3zm3.3.1v.2h-.2l.2-.2zm.1.5h.2v.1l-.2-.1zm63.3.5h.2v.1l-.2-.1zm-80.2.1h.2v.2l-.2.2v-.4zm84.9 0h.2l-.1.3h-.1v-.3zm-3 .1h.1v.2h-.1v-.2zm2.9.3h.2v.1l-.2-.1zm-2.4 2.4h.1v.2h-.1v-.2zm1.5.2l.1.2h-.1v-.2zm3.5.1h.2v.8h-.2l-.1-.1v-.1l.1-.1v-.5zm-86.3.3l.1.1-.2.1.1-.2zm2.9 1.9l.1.1v-.1h-.1z"/>
</svg>
